<mxfile host="app.diagrams.net" modified="2024-06-17T08:53:47.215Z" agent="Mozilla/5.0 (Windows NT 10.0; Win64; x64) AppleWebKit/537.36 (KHTML, like Gecko) Chrome/125.0.0.0 Safari/537.36" etag="jIhP63VBrxWZyZtEmA_-" version="24.5.4" type="device">
  <diagram id="C5RBs43oDa-KdzZeNtuy" name="Page-1">
    <mxGraphModel dx="3014" dy="2323" grid="1" gridSize="10" guides="1" tooltips="1" connect="1" arrows="1" fold="1" page="1" pageScale="1" pageWidth="827" pageHeight="1169" background="none" math="0" shadow="0">
      <root>
        <mxCell id="WIyWlLk6GJQsqaUBKTNV-0" />
        <mxCell id="WIyWlLk6GJQsqaUBKTNV-1" style="locked=1;" parent="WIyWlLk6GJQsqaUBKTNV-0" />
        <mxCell id="uELjJrwcDgMOyGcO3iNr-149" value="제목 없는 레이어" style="locked=1;" parent="WIyWlLk6GJQsqaUBKTNV-0" />
        <mxCell id="uELjJrwcDgMOyGcO3iNr-150" value="" style="rounded=0;whiteSpace=wrap;html=1;fillColor=#dae8fc;strokeColor=#6c8ebf;" vertex="1" parent="uELjJrwcDgMOyGcO3iNr-149">
          <mxGeometry y="410" width="480" height="300" as="geometry" />
        </mxCell>
        <mxCell id="uELjJrwcDgMOyGcO3iNr-151" value="" style="rounded=0;whiteSpace=wrap;html=1;fillColor=#dae8fc;strokeColor=#6c8ebf;" vertex="1" parent="uELjJrwcDgMOyGcO3iNr-149">
          <mxGeometry x="10" y="780" width="480" height="300" as="geometry" />
        </mxCell>
        <mxCell id="uELjJrwcDgMOyGcO3iNr-152" value="" style="rounded=0;whiteSpace=wrap;html=1;fillColor=#dae8fc;strokeColor=#6c8ebf;" vertex="1" parent="uELjJrwcDgMOyGcO3iNr-149">
          <mxGeometry x="-540" y="780" width="480" height="300" as="geometry" />
        </mxCell>
        <mxCell id="uELjJrwcDgMOyGcO3iNr-153" value="" style="rounded=0;whiteSpace=wrap;html=1;fillColor=#dae8fc;strokeColor=#6c8ebf;" vertex="1" parent="uELjJrwcDgMOyGcO3iNr-149">
          <mxGeometry x="520" y="60" width="480" height="300" as="geometry" />
        </mxCell>
        <mxCell id="uELjJrwcDgMOyGcO3iNr-154" value="" style="rounded=0;whiteSpace=wrap;html=1;fillColor=#dae8fc;strokeColor=#6c8ebf;" vertex="1" parent="uELjJrwcDgMOyGcO3iNr-149">
          <mxGeometry x="520" y="410" width="480" height="300" as="geometry" />
        </mxCell>
        <mxCell id="uELjJrwcDgMOyGcO3iNr-155" value="" style="rounded=0;whiteSpace=wrap;html=1;fillColor=#dae8fc;strokeColor=#6c8ebf;" vertex="1" parent="uELjJrwcDgMOyGcO3iNr-149">
          <mxGeometry x="520" y="780" width="480" height="300" as="geometry" />
        </mxCell>
        <mxCell id="uELjJrwcDgMOyGcO3iNr-167" value="" style="rounded=0;whiteSpace=wrap;html=1;fillColor=#dae8fc;strokeColor=#6c8ebf;" vertex="1" parent="uELjJrwcDgMOyGcO3iNr-149">
          <mxGeometry x="10" y="1140" width="330" height="380" as="geometry" />
        </mxCell>
        <mxCell id="uELjJrwcDgMOyGcO3iNr-175" value="" style="rounded=0;whiteSpace=wrap;html=1;fillColor=#dae8fc;strokeColor=#6c8ebf;" vertex="1" parent="uELjJrwcDgMOyGcO3iNr-149">
          <mxGeometry x="380" y="1140" width="330" height="380" as="geometry" />
        </mxCell>
        <mxCell id="uELjJrwcDgMOyGcO3iNr-191" value="" style="rounded=0;whiteSpace=wrap;html=1;fillColor=#dae8fc;strokeColor=#6c8ebf;" vertex="1" parent="uELjJrwcDgMOyGcO3iNr-149">
          <mxGeometry x="1220" y="60" width="480" height="300" as="geometry" />
        </mxCell>
        <mxCell id="uELjJrwcDgMOyGcO3iNr-208" value="" style="rounded=0;whiteSpace=wrap;html=1;fillColor=#dae8fc;strokeColor=#6c8ebf;" vertex="1" parent="uELjJrwcDgMOyGcO3iNr-149">
          <mxGeometry y="60" width="480" height="300" as="geometry" />
        </mxCell>
        <mxCell id="uELjJrwcDgMOyGcO3iNr-2" value="1" style="" parent="WIyWlLk6GJQsqaUBKTNV-0" />
        <mxCell id="uELjJrwcDgMOyGcO3iNr-5" value="메인 화면" style="swimlane;whiteSpace=wrap;html=1;" vertex="1" parent="uELjJrwcDgMOyGcO3iNr-2">
          <mxGeometry x="-540" y="760" width="480" height="320" as="geometry" />
        </mxCell>
        <mxCell id="uELjJrwcDgMOyGcO3iNr-9" value="고객 클릭시 설문조사 내용 조회" style="rounded=0;whiteSpace=wrap;html=1;" vertex="1" parent="uELjJrwcDgMOyGcO3iNr-5">
          <mxGeometry x="210" y="170" width="240" height="130" as="geometry" />
        </mxCell>
        <mxCell id="uELjJrwcDgMOyGcO3iNr-10" value="유저 ID&amp;nbsp; &amp;nbsp; &amp;nbsp; &amp;nbsp; &amp;nbsp; &amp;nbsp; &amp;nbsp; &amp;nbsp; &amp;nbsp; 채팅 내역" style="text;html=1;align=left;verticalAlign=middle;whiteSpace=wrap;rounded=0;" vertex="1" parent="uELjJrwcDgMOyGcO3iNr-5">
          <mxGeometry x="220" y="170" width="210" height="30" as="geometry" />
        </mxCell>
        <mxCell id="uELjJrwcDgMOyGcO3iNr-11" value="유저 정보" style="rounded=0;whiteSpace=wrap;html=1;" vertex="1" parent="uELjJrwcDgMOyGcO3iNr-5">
          <mxGeometry x="30" y="170" width="130" height="70" as="geometry" />
        </mxCell>
        <mxCell id="uELjJrwcDgMOyGcO3iNr-12" value="유저 검색" style="rounded=0;whiteSpace=wrap;html=1;" vertex="1" parent="uELjJrwcDgMOyGcO3iNr-5">
          <mxGeometry x="30" y="100" width="130" height="30" as="geometry" />
        </mxCell>
        <mxCell id="uELjJrwcDgMOyGcO3iNr-30" value="국가 검색" style="swimlane;whiteSpace=wrap;html=1;" vertex="1" parent="uELjJrwcDgMOyGcO3iNr-2">
          <mxGeometry y="390" width="480" height="320" as="geometry" />
        </mxCell>
        <mxCell id="uELjJrwcDgMOyGcO3iNr-33" value="국가코드 입력" style="rounded=0;whiteSpace=wrap;html=1;" vertex="1" parent="uELjJrwcDgMOyGcO3iNr-30">
          <mxGeometry x="300" y="190" width="130" height="30" as="geometry" />
        </mxCell>
        <mxCell id="uELjJrwcDgMOyGcO3iNr-34" value="국가이름 입력" style="rounded=0;whiteSpace=wrap;html=1;" vertex="1" parent="uELjJrwcDgMOyGcO3iNr-30">
          <mxGeometry x="300" y="150" width="130" height="30" as="geometry" />
        </mxCell>
        <mxCell id="uELjJrwcDgMOyGcO3iNr-53" value="국가에 대한 내용" style="rounded=1;whiteSpace=wrap;html=1;" vertex="1" parent="uELjJrwcDgMOyGcO3iNr-30">
          <mxGeometry x="25" y="90" width="235" height="210" as="geometry" />
        </mxCell>
        <mxCell id="uELjJrwcDgMOyGcO3iNr-47" value="고객 로그인 창" style="swimlane;whiteSpace=wrap;html=1;" vertex="1" parent="uELjJrwcDgMOyGcO3iNr-2">
          <mxGeometry x="520" y="40" width="480" height="320" as="geometry" />
        </mxCell>
        <mxCell id="uELjJrwcDgMOyGcO3iNr-49" value="PW" style="rounded=0;whiteSpace=wrap;html=1;" vertex="1" parent="uELjJrwcDgMOyGcO3iNr-47">
          <mxGeometry x="175" y="170" width="130" height="30" as="geometry" />
        </mxCell>
        <mxCell id="uELjJrwcDgMOyGcO3iNr-50" value="ID" style="rounded=0;whiteSpace=wrap;html=1;" vertex="1" parent="uELjJrwcDgMOyGcO3iNr-47">
          <mxGeometry x="175" y="120" width="130" height="30" as="geometry" />
        </mxCell>
        <mxCell id="uELjJrwcDgMOyGcO3iNr-67" value="Login" style="rounded=1;whiteSpace=wrap;html=1;arcSize=50;" vertex="1" parent="uELjJrwcDgMOyGcO3iNr-47">
          <mxGeometry x="190" y="230" width="100" height="30" as="geometry" />
        </mxCell>
        <mxCell id="uELjJrwcDgMOyGcO3iNr-55" value="Q&amp;amp;A" style="swimlane;whiteSpace=wrap;html=1;" vertex="1" parent="uELjJrwcDgMOyGcO3iNr-2">
          <mxGeometry x="520" y="390" width="480" height="320" as="geometry" />
        </mxCell>
        <mxCell id="uELjJrwcDgMOyGcO3iNr-56" value="자주 묻는 질문들" style="rounded=0;whiteSpace=wrap;html=1;" vertex="1" parent="uELjJrwcDgMOyGcO3iNr-55">
          <mxGeometry x="30" y="80" width="130" height="30" as="geometry" />
        </mxCell>
        <mxCell id="uELjJrwcDgMOyGcO3iNr-57" value="자주 묻는 질문들" style="rounded=0;whiteSpace=wrap;html=1;" vertex="1" parent="uELjJrwcDgMOyGcO3iNr-55">
          <mxGeometry x="30" y="40" width="130" height="30" as="geometry" />
        </mxCell>
        <mxCell id="uELjJrwcDgMOyGcO3iNr-58" value="위에 버튼 클릭시 출력" style="rounded=1;whiteSpace=wrap;html=1;" vertex="1" parent="uELjJrwcDgMOyGcO3iNr-55">
          <mxGeometry x="30" y="130" width="420" height="175" as="geometry" />
        </mxCell>
        <mxCell id="uELjJrwcDgMOyGcO3iNr-79" value="자주 묻는 질문들" style="rounded=0;whiteSpace=wrap;html=1;" vertex="1" parent="uELjJrwcDgMOyGcO3iNr-55">
          <mxGeometry x="175" y="40" width="130" height="30" as="geometry" />
        </mxCell>
        <mxCell id="uELjJrwcDgMOyGcO3iNr-80" value="자주 묻는 질문들" style="rounded=0;whiteSpace=wrap;html=1;" vertex="1" parent="uELjJrwcDgMOyGcO3iNr-55">
          <mxGeometry x="175" y="80" width="130" height="30" as="geometry" />
        </mxCell>
        <mxCell id="uELjJrwcDgMOyGcO3iNr-81" value="자주 묻는 질문들" style="rounded=0;whiteSpace=wrap;html=1;" vertex="1" parent="uELjJrwcDgMOyGcO3iNr-55">
          <mxGeometry x="320" y="40" width="130" height="30" as="geometry" />
        </mxCell>
        <mxCell id="uELjJrwcDgMOyGcO3iNr-82" value="자주 묻는 질문들" style="rounded=0;whiteSpace=wrap;html=1;" vertex="1" parent="uELjJrwcDgMOyGcO3iNr-55">
          <mxGeometry x="320" y="80" width="130" height="30" as="geometry" />
        </mxCell>
        <mxCell id="uELjJrwcDgMOyGcO3iNr-63" value="상담사 메뉴창" style="swimlane;whiteSpace=wrap;html=1;swimlaneFillColor=none;gradientColor=none;fillColor=default;" vertex="1" parent="uELjJrwcDgMOyGcO3iNr-2">
          <mxGeometry x="10" y="760" width="480" height="320" as="geometry" />
        </mxCell>
        <mxCell id="uELjJrwcDgMOyGcO3iNr-75" value="고객 정보 조회" style="rounded=1;whiteSpace=wrap;html=1;" vertex="1" parent="uELjJrwcDgMOyGcO3iNr-63">
          <mxGeometry x="188.07999999999993" y="170" width="111.91" height="100" as="geometry" />
        </mxCell>
        <mxCell id="uELjJrwcDgMOyGcO3iNr-76" value="고객 1:1 채팅" style="rounded=1;whiteSpace=wrap;html=1;" vertex="1" parent="uELjJrwcDgMOyGcO3iNr-63">
          <mxGeometry x="334.03999999999996" y="170" width="111.91" height="100" as="geometry" />
        </mxCell>
        <mxCell id="uELjJrwcDgMOyGcO3iNr-77" value="API 조회" style="rounded=1;whiteSpace=wrap;html=1;" vertex="1" parent="uELjJrwcDgMOyGcO3iNr-63">
          <mxGeometry x="34.03999999999996" y="170" width="111.91" height="100" as="geometry" />
        </mxCell>
        <mxCell id="uELjJrwcDgMOyGcO3iNr-70" value="고객 메뉴창" style="swimlane;whiteSpace=wrap;html=1;" vertex="1" parent="uELjJrwcDgMOyGcO3iNr-2">
          <mxGeometry x="520" y="760" width="480" height="320" as="geometry" />
        </mxCell>
        <mxCell id="uELjJrwcDgMOyGcO3iNr-71" value="API 검색" style="rounded=1;whiteSpace=wrap;html=1;" vertex="1" parent="uELjJrwcDgMOyGcO3iNr-70">
          <mxGeometry x="30" y="170" width="111.91" height="100" as="geometry" />
        </mxCell>
        <mxCell id="uELjJrwcDgMOyGcO3iNr-73" value="상담사 1:1 채팅" style="rounded=1;whiteSpace=wrap;html=1;" vertex="1" parent="uELjJrwcDgMOyGcO3iNr-70">
          <mxGeometry x="330" y="170" width="111.91" height="100" as="geometry" />
        </mxCell>
        <mxCell id="uELjJrwcDgMOyGcO3iNr-74" value="Login" style="rounded=1;whiteSpace=wrap;html=1;" vertex="1" parent="uELjJrwcDgMOyGcO3iNr-70">
          <mxGeometry x="380" y="40" width="81.91" height="40" as="geometry" />
        </mxCell>
        <mxCell id="uELjJrwcDgMOyGcO3iNr-72" value="자주 묻는 Q&amp;amp;A" style="rounded=1;whiteSpace=wrap;html=1;" vertex="1" parent="uELjJrwcDgMOyGcO3iNr-70">
          <mxGeometry x="184.03999999999996" y="170" width="111.91" height="100" as="geometry" />
        </mxCell>
        <mxCell id="uELjJrwcDgMOyGcO3iNr-157" value="상담사 채팅" style="swimlane;whiteSpace=wrap;html=1;" vertex="1" parent="uELjJrwcDgMOyGcO3iNr-2">
          <mxGeometry x="10" y="1120" width="330" height="450" as="geometry" />
        </mxCell>
        <mxCell id="uELjJrwcDgMOyGcO3iNr-160" value="고객" style="ellipse;whiteSpace=wrap;html=1;aspect=fixed;" vertex="1" parent="uELjJrwcDgMOyGcO3iNr-157">
          <mxGeometry x="15" y="49" width="50" height="50" as="geometry" />
        </mxCell>
        <mxCell id="uELjJrwcDgMOyGcO3iNr-161" value="" style="rounded=0;whiteSpace=wrap;html=1;" vertex="1" parent="uELjJrwcDgMOyGcO3iNr-157">
          <mxGeometry y="400" width="330" height="50" as="geometry" />
        </mxCell>
        <mxCell id="uELjJrwcDgMOyGcO3iNr-162" value="상담사" style="ellipse;whiteSpace=wrap;html=1;aspect=fixed;" vertex="1" parent="uELjJrwcDgMOyGcO3iNr-157">
          <mxGeometry x="260" y="150" width="50" height="50" as="geometry" />
        </mxCell>
        <mxCell id="uELjJrwcDgMOyGcO3iNr-164" value="채팅 내용" style="text;html=1;align=center;verticalAlign=middle;whiteSpace=wrap;rounded=0;" vertex="1" parent="uELjJrwcDgMOyGcO3iNr-157">
          <mxGeometry x="80" y="59" width="60" height="30" as="geometry" />
        </mxCell>
        <mxCell id="uELjJrwcDgMOyGcO3iNr-165" value="채팅 내용" style="text;html=1;align=center;verticalAlign=middle;whiteSpace=wrap;rounded=0;" vertex="1" parent="uELjJrwcDgMOyGcO3iNr-157">
          <mxGeometry x="180" y="160" width="60" height="30" as="geometry" />
        </mxCell>
        <mxCell id="uELjJrwcDgMOyGcO3iNr-177" style="edgeStyle=orthogonalEdgeStyle;rounded=0;orthogonalLoop=1;jettySize=auto;html=1;entryX=0.5;entryY=1;entryDx=0;entryDy=0;" edge="1" parent="uELjJrwcDgMOyGcO3iNr-157" source="uELjJrwcDgMOyGcO3iNr-166" target="uELjJrwcDgMOyGcO3iNr-165">
          <mxGeometry relative="1" as="geometry" />
        </mxCell>
        <mxCell id="uELjJrwcDgMOyGcO3iNr-166" value="입력" style="rounded=0;whiteSpace=wrap;html=1;fillColor=#dae8fc;strokeColor=#6c8ebf;" vertex="1" parent="uELjJrwcDgMOyGcO3iNr-157">
          <mxGeometry x="270" y="415" width="50" height="20" as="geometry" />
        </mxCell>
        <mxCell id="uELjJrwcDgMOyGcO3iNr-168" value="고객 채팅" style="swimlane;whiteSpace=wrap;html=1;" vertex="1" parent="uELjJrwcDgMOyGcO3iNr-2">
          <mxGeometry x="380" y="1120" width="330" height="450" as="geometry" />
        </mxCell>
        <mxCell id="uELjJrwcDgMOyGcO3iNr-169" value="상담사" style="ellipse;whiteSpace=wrap;html=1;aspect=fixed;" vertex="1" parent="uELjJrwcDgMOyGcO3iNr-168">
          <mxGeometry x="15" y="49" width="50" height="50" as="geometry" />
        </mxCell>
        <mxCell id="uELjJrwcDgMOyGcO3iNr-170" value="" style="rounded=0;whiteSpace=wrap;html=1;" vertex="1" parent="uELjJrwcDgMOyGcO3iNr-168">
          <mxGeometry y="400" width="330" height="50" as="geometry" />
        </mxCell>
        <mxCell id="uELjJrwcDgMOyGcO3iNr-171" value="고객" style="ellipse;whiteSpace=wrap;html=1;aspect=fixed;" vertex="1" parent="uELjJrwcDgMOyGcO3iNr-168">
          <mxGeometry x="260" y="150" width="50" height="50" as="geometry" />
        </mxCell>
        <mxCell id="uELjJrwcDgMOyGcO3iNr-172" value="채팅 내용" style="text;html=1;align=center;verticalAlign=middle;whiteSpace=wrap;rounded=0;" vertex="1" parent="uELjJrwcDgMOyGcO3iNr-168">
          <mxGeometry x="80" y="59" width="60" height="30" as="geometry" />
        </mxCell>
        <mxCell id="uELjJrwcDgMOyGcO3iNr-173" value="채팅 내용" style="text;html=1;align=center;verticalAlign=middle;whiteSpace=wrap;rounded=0;" vertex="1" parent="uELjJrwcDgMOyGcO3iNr-168">
          <mxGeometry x="180" y="160" width="60" height="30" as="geometry" />
        </mxCell>
        <mxCell id="uELjJrwcDgMOyGcO3iNr-176" style="edgeStyle=orthogonalEdgeStyle;rounded=0;orthogonalLoop=1;jettySize=auto;html=1;entryX=0.5;entryY=1;entryDx=0;entryDy=0;" edge="1" parent="uELjJrwcDgMOyGcO3iNr-168" source="uELjJrwcDgMOyGcO3iNr-174" target="uELjJrwcDgMOyGcO3iNr-173">
          <mxGeometry relative="1" as="geometry" />
        </mxCell>
        <mxCell id="uELjJrwcDgMOyGcO3iNr-174" value="입력" style="rounded=0;whiteSpace=wrap;html=1;fillColor=#dae8fc;strokeColor=#6c8ebf;" vertex="1" parent="uELjJrwcDgMOyGcO3iNr-168">
          <mxGeometry x="270" y="415" width="50" height="20" as="geometry" />
        </mxCell>
        <mxCell id="uELjJrwcDgMOyGcO3iNr-178" style="edgeStyle=orthogonalEdgeStyle;rounded=0;orthogonalLoop=1;jettySize=auto;html=1;entryX=0.5;entryY=1;entryDx=0;entryDy=0;" edge="1" parent="uELjJrwcDgMOyGcO3iNr-2" source="uELjJrwcDgMOyGcO3iNr-77" target="uELjJrwcDgMOyGcO3iNr-30">
          <mxGeometry relative="1" as="geometry" />
        </mxCell>
        <mxCell id="uELjJrwcDgMOyGcO3iNr-181" style="edgeStyle=orthogonalEdgeStyle;rounded=0;orthogonalLoop=1;jettySize=auto;html=1;entryX=1;entryY=0.5;entryDx=0;entryDy=0;" edge="1" parent="uELjJrwcDgMOyGcO3iNr-2" source="uELjJrwcDgMOyGcO3iNr-74" target="uELjJrwcDgMOyGcO3iNr-47">
          <mxGeometry relative="1" as="geometry">
            <Array as="points">
              <mxPoint x="1200" y="820" />
              <mxPoint x="1200" y="200" />
            </Array>
          </mxGeometry>
        </mxCell>
        <mxCell id="uELjJrwcDgMOyGcO3iNr-183" style="edgeStyle=orthogonalEdgeStyle;rounded=0;orthogonalLoop=1;jettySize=auto;html=1;entryX=1;entryY=0.5;entryDx=0;entryDy=0;" edge="1" parent="uELjJrwcDgMOyGcO3iNr-2" source="uELjJrwcDgMOyGcO3iNr-73" target="uELjJrwcDgMOyGcO3iNr-168">
          <mxGeometry relative="1" as="geometry">
            <Array as="points">
              <mxPoint x="906" y="1345" />
            </Array>
          </mxGeometry>
        </mxCell>
        <mxCell id="uELjJrwcDgMOyGcO3iNr-184" style="edgeStyle=orthogonalEdgeStyle;rounded=0;orthogonalLoop=1;jettySize=auto;html=1;entryX=0.5;entryY=1;entryDx=0;entryDy=0;" edge="1" parent="uELjJrwcDgMOyGcO3iNr-2" source="uELjJrwcDgMOyGcO3iNr-72" target="uELjJrwcDgMOyGcO3iNr-55">
          <mxGeometry relative="1" as="geometry" />
        </mxCell>
        <mxCell id="uELjJrwcDgMOyGcO3iNr-185" style="edgeStyle=orthogonalEdgeStyle;rounded=0;orthogonalLoop=1;jettySize=auto;html=1;entryX=0.5;entryY=0;entryDx=0;entryDy=0;" edge="1" parent="uELjJrwcDgMOyGcO3iNr-2" source="uELjJrwcDgMOyGcO3iNr-76" target="uELjJrwcDgMOyGcO3iNr-157">
          <mxGeometry relative="1" as="geometry">
            <Array as="points">
              <mxPoint x="400" y="1090" />
              <mxPoint x="175" y="1090" />
            </Array>
          </mxGeometry>
        </mxCell>
        <mxCell id="uELjJrwcDgMOyGcO3iNr-186" value="고객 메뉴창" style="swimlane;whiteSpace=wrap;html=1;" vertex="1" parent="uELjJrwcDgMOyGcO3iNr-2">
          <mxGeometry x="1220" y="40" width="480" height="320" as="geometry" />
        </mxCell>
        <mxCell id="uELjJrwcDgMOyGcO3iNr-189" value="확인" style="rounded=1;whiteSpace=wrap;html=1;" vertex="1" parent="uELjJrwcDgMOyGcO3iNr-186">
          <mxGeometry x="380" y="40" width="81.91" height="30" as="geometry" />
        </mxCell>
        <mxCell id="uELjJrwcDgMOyGcO3iNr-190" value="설문 조사&amp;nbsp;" style="rounded=1;whiteSpace=wrap;html=1;" vertex="1" parent="uELjJrwcDgMOyGcO3iNr-186">
          <mxGeometry x="20" y="40" width="350" height="250" as="geometry" />
        </mxCell>
        <mxCell id="uELjJrwcDgMOyGcO3iNr-193" style="edgeStyle=orthogonalEdgeStyle;rounded=0;orthogonalLoop=1;jettySize=auto;html=1;entryX=1;entryY=0.5;entryDx=0;entryDy=0;" edge="1" parent="uELjJrwcDgMOyGcO3iNr-2" source="uELjJrwcDgMOyGcO3iNr-75" target="uELjJrwcDgMOyGcO3iNr-5">
          <mxGeometry relative="1" as="geometry">
            <Array as="points">
              <mxPoint x="254" y="920" />
            </Array>
          </mxGeometry>
        </mxCell>
        <mxCell id="uELjJrwcDgMOyGcO3iNr-204" value="상담사 로그인 창" style="swimlane;whiteSpace=wrap;html=1;" vertex="1" parent="uELjJrwcDgMOyGcO3iNr-2">
          <mxGeometry y="40" width="480" height="320" as="geometry" />
        </mxCell>
        <mxCell id="uELjJrwcDgMOyGcO3iNr-205" value="PW" style="rounded=0;whiteSpace=wrap;html=1;" vertex="1" parent="uELjJrwcDgMOyGcO3iNr-204">
          <mxGeometry x="175" y="170" width="130" height="30" as="geometry" />
        </mxCell>
        <mxCell id="uELjJrwcDgMOyGcO3iNr-206" value="ID" style="rounded=0;whiteSpace=wrap;html=1;" vertex="1" parent="uELjJrwcDgMOyGcO3iNr-204">
          <mxGeometry x="175" y="120" width="130" height="30" as="geometry" />
        </mxCell>
        <mxCell id="uELjJrwcDgMOyGcO3iNr-207" value="Login" style="rounded=1;whiteSpace=wrap;html=1;arcSize=50;" vertex="1" parent="uELjJrwcDgMOyGcO3iNr-204">
          <mxGeometry x="190" y="230" width="100" height="30" as="geometry" />
        </mxCell>
        <mxCell id="uELjJrwcDgMOyGcO3iNr-209" style="edgeStyle=orthogonalEdgeStyle;rounded=0;orthogonalLoop=1;jettySize=auto;html=1;entryX=0;entryY=0.5;entryDx=0;entryDy=0;" edge="1" parent="uELjJrwcDgMOyGcO3iNr-2" source="uELjJrwcDgMOyGcO3iNr-67" target="uELjJrwcDgMOyGcO3iNr-186">
          <mxGeometry relative="1" as="geometry" />
        </mxCell>
      </root>
    </mxGraphModel>
  </diagram>
</mxfile>
